<mxfile host="Electron" modified="2024-11-25T13:47:46.012Z" agent="Mozilla/5.0 (Windows NT 10.0; Win64; x64) AppleWebKit/537.36 (KHTML, like Gecko) draw.io/23.1.5 Chrome/120.0.6099.109 Electron/28.1.0 Safari/537.36" etag="GPc0Jj-7KxpOS8_I6DfL" version="23.1.5" type="device">
  <diagram id="C5RBs43oDa-KdzZeNtuy" name="Page-1">
    <mxGraphModel dx="7000" dy="5794" grid="1" gridSize="10" guides="1" tooltips="1" connect="1" arrows="1" fold="1" page="1" pageScale="1" pageWidth="1169" pageHeight="1654" math="0" shadow="0">
      <root>
        <mxCell id="WIyWlLk6GJQsqaUBKTNV-0" />
        <mxCell id="WIyWlLk6GJQsqaUBKTNV-1" parent="WIyWlLk6GJQsqaUBKTNV-0" />
        <mxCell id="vSYfUBVNN7IIqY1nTDT4-2" value="Задать яркость матрицы, равную 1" style="rounded=0;whiteSpace=wrap;html=1;" parent="WIyWlLk6GJQsqaUBKTNV-1" vertex="1">
          <mxGeometry x="280" y="-440" width="120" height="60" as="geometry" />
        </mxCell>
        <mxCell id="vSYfUBVNN7IIqY1nTDT4-3" value="Задать число последовательных нестабильных сигналов, равное 5" style="rounded=0;whiteSpace=wrap;html=1;" parent="WIyWlLk6GJQsqaUBKTNV-1" vertex="1">
          <mxGeometry x="280" y="-340" width="120" height="60" as="geometry" />
        </mxCell>
        <mxCell id="vSYfUBVNN7IIqY1nTDT4-4" value="Задать нормализацию, то есть установить параметр нормализации в 1" style="rounded=0;whiteSpace=wrap;html=1;" parent="WIyWlLk6GJQsqaUBKTNV-1" vertex="1">
          <mxGeometry x="235" y="-240" width="210" height="80" as="geometry" />
        </mxCell>
        <mxCell id="vSYfUBVNN7IIqY1nTDT4-5" value="Задать плавность анимации столбиков на матрице, равную 0.5" style="rounded=0;whiteSpace=wrap;html=1;" parent="WIyWlLk6GJQsqaUBKTNV-1" vertex="1">
          <mxGeometry x="280" y="-120" width="120" height="60" as="geometry" />
        </mxCell>
        <mxCell id="vSYfUBVNN7IIqY1nTDT4-6" value="Задать задержку между итерациями главного цикла, равную 2" style="rounded=0;whiteSpace=wrap;html=1;" parent="WIyWlLk6GJQsqaUBKTNV-1" vertex="1">
          <mxGeometry x="280" y="-20" width="120" height="60" as="geometry" />
        </mxCell>
        <mxCell id="vSYfUBVNN7IIqY1nTDT4-7" value="Задать плавность анимации столбиков на матрице, равную 0.5" style="rounded=0;whiteSpace=wrap;html=1;" parent="WIyWlLk6GJQsqaUBKTNV-1" vertex="1">
          <mxGeometry x="280" y="80" width="120" height="60" as="geometry" />
        </mxCell>
        <mxCell id="vSYfUBVNN7IIqY1nTDT4-8" value="Задать отрисовку точек максимума, то есть установить параметр в 1" style="rounded=0;whiteSpace=wrap;html=1;" parent="WIyWlLk6GJQsqaUBKTNV-1" vertex="1">
          <mxGeometry x="235" y="180" width="210" height="80" as="geometry" />
        </mxCell>
        <mxCell id="vSYfUBVNN7IIqY1nTDT4-9" value="Задать время удержания точек максимума, равное 700" style="rounded=0;whiteSpace=wrap;html=1;" parent="WIyWlLk6GJQsqaUBKTNV-1" vertex="1">
          <mxGeometry x="235" y="300" width="210" height="80" as="geometry" />
        </mxCell>
        <mxCell id="vSYfUBVNN7IIqY1nTDT4-10" value="Задать интервал падения точек максимума, равный 50" style="rounded=0;whiteSpace=wrap;html=1;" parent="WIyWlLk6GJQsqaUBKTNV-1" vertex="1">
          <mxGeometry x="575" y="-440" width="210" height="80" as="geometry" />
        </mxCell>
        <mxCell id="vSYfUBVNN7IIqY1nTDT4-11" value="Задать аналоговый пин А0 для перовго микрофона" style="rounded=0;whiteSpace=wrap;html=1;" parent="WIyWlLk6GJQsqaUBKTNV-1" vertex="1">
          <mxGeometry x="575" y="-320" width="210" height="80" as="geometry" />
        </mxCell>
        <mxCell id="vSYfUBVNN7IIqY1nTDT4-12" value="Задать аналоговый пин А1 для второго микрофона" style="rounded=0;whiteSpace=wrap;html=1;" parent="WIyWlLk6GJQsqaUBKTNV-1" vertex="1">
          <mxGeometry x="575" y="-200" width="210" height="80" as="geometry" />
        </mxCell>
        <mxCell id="vSYfUBVNN7IIqY1nTDT4-13" value="Инициализация смещений для обработки спектра(массив состоит из 33 значений, которые выбираются через два шага)" style="rounded=0;whiteSpace=wrap;html=1;" parent="WIyWlLk6GJQsqaUBKTNV-1" vertex="1">
          <mxGeometry x="575" y="-80" width="210" height="80" as="geometry" />
        </mxCell>
        <mxCell id="vSYfUBVNN7IIqY1nTDT4-14" value="Установка делителя частоты АЦП в 128" style="rounded=0;whiteSpace=wrap;html=1;" parent="WIyWlLk6GJQsqaUBKTNV-1" vertex="1">
          <mxGeometry x="575" y="160" width="210" height="80" as="geometry" />
        </mxCell>
        <mxCell id="vSYfUBVNN7IIqY1nTDT4-15" value="Установка внешнего опорного напряжения в 3,3 В" style="rounded=0;whiteSpace=wrap;html=1;" parent="WIyWlLk6GJQsqaUBKTNV-1" vertex="1">
          <mxGeometry x="570" y="280" width="210" height="80" as="geometry" />
        </mxCell>
        <mxCell id="vSYfUBVNN7IIqY1nTDT4-17" value="Настройка матрицы MAX7219 для управления (подключение CS к D10, c 4 модулями и одинарным соединением)" style="rounded=0;whiteSpace=wrap;html=1;" parent="WIyWlLk6GJQsqaUBKTNV-1" vertex="1">
          <mxGeometry x="570" y="40" width="210" height="80" as="geometry" />
        </mxCell>
        <mxCell id="vSYfUBVNN7IIqY1nTDT4-18" value="Открыть последовательный порт,&amp;nbsp;&amp;nbsp;чтобы выводить данные для диагностики и отладки." style="rounded=0;whiteSpace=wrap;html=1;" parent="WIyWlLk6GJQsqaUBKTNV-1" vertex="1">
          <mxGeometry x="570" y="400" width="210" height="80" as="geometry" />
        </mxCell>
        <mxCell id="vSYfUBVNN7IIqY1nTDT4-19" value="1" style="ellipse;whiteSpace=wrap;html=1;aspect=fixed;" parent="WIyWlLk6GJQsqaUBKTNV-1" vertex="1">
          <mxGeometry x="320" y="420" width="40" height="40" as="geometry" />
        </mxCell>
        <mxCell id="vSYfUBVNN7IIqY1nTDT4-20" value="1" style="ellipse;whiteSpace=wrap;html=1;aspect=fixed;" parent="WIyWlLk6GJQsqaUBKTNV-1" vertex="1">
          <mxGeometry x="660" y="-520" width="40" height="40" as="geometry" />
        </mxCell>
        <mxCell id="vSYfUBVNN7IIqY1nTDT4-21" value="Начало" style="rounded=1;whiteSpace=wrap;html=1;arcSize=50;" parent="WIyWlLk6GJQsqaUBKTNV-1" vertex="1">
          <mxGeometry x="280" y="-530" width="120" height="50" as="geometry" />
        </mxCell>
        <mxCell id="vSYfUBVNN7IIqY1nTDT4-22" value="" style="endArrow=classic;html=1;rounded=0;" parent="WIyWlLk6GJQsqaUBKTNV-1" edge="1">
          <mxGeometry width="50" height="50" relative="1" as="geometry">
            <mxPoint x="339.63" y="-480" as="sourcePoint" />
            <mxPoint x="339.63" y="-440" as="targetPoint" />
          </mxGeometry>
        </mxCell>
        <mxCell id="vSYfUBVNN7IIqY1nTDT4-23" value="" style="endArrow=classic;html=1;rounded=0;" parent="WIyWlLk6GJQsqaUBKTNV-1" edge="1">
          <mxGeometry width="50" height="50" relative="1" as="geometry">
            <mxPoint x="339.77000000000004" y="-380" as="sourcePoint" />
            <mxPoint x="339.77000000000004" y="-340" as="targetPoint" />
          </mxGeometry>
        </mxCell>
        <mxCell id="vSYfUBVNN7IIqY1nTDT4-24" value="" style="endArrow=classic;html=1;rounded=0;" parent="WIyWlLk6GJQsqaUBKTNV-1" edge="1">
          <mxGeometry width="50" height="50" relative="1" as="geometry">
            <mxPoint x="339.71000000000004" y="-280" as="sourcePoint" />
            <mxPoint x="339.71000000000004" y="-240" as="targetPoint" />
          </mxGeometry>
        </mxCell>
        <mxCell id="vSYfUBVNN7IIqY1nTDT4-25" value="" style="endArrow=classic;html=1;rounded=0;" parent="WIyWlLk6GJQsqaUBKTNV-1" edge="1">
          <mxGeometry width="50" height="50" relative="1" as="geometry">
            <mxPoint x="339.57000000000005" y="-160" as="sourcePoint" />
            <mxPoint x="339.57000000000005" y="-120" as="targetPoint" />
          </mxGeometry>
        </mxCell>
        <mxCell id="vSYfUBVNN7IIqY1nTDT4-26" value="" style="endArrow=classic;html=1;rounded=0;" parent="WIyWlLk6GJQsqaUBKTNV-1" edge="1">
          <mxGeometry width="50" height="50" relative="1" as="geometry">
            <mxPoint x="339.57000000000005" y="-60" as="sourcePoint" />
            <mxPoint x="339.57000000000005" y="-20" as="targetPoint" />
          </mxGeometry>
        </mxCell>
        <mxCell id="vSYfUBVNN7IIqY1nTDT4-27" value="" style="endArrow=classic;html=1;rounded=0;" parent="WIyWlLk6GJQsqaUBKTNV-1" edge="1">
          <mxGeometry width="50" height="50" relative="1" as="geometry">
            <mxPoint x="339.57000000000005" y="40" as="sourcePoint" />
            <mxPoint x="339.57000000000005" y="80" as="targetPoint" />
          </mxGeometry>
        </mxCell>
        <mxCell id="vSYfUBVNN7IIqY1nTDT4-28" value="" style="endArrow=classic;html=1;rounded=0;" parent="WIyWlLk6GJQsqaUBKTNV-1" edge="1">
          <mxGeometry width="50" height="50" relative="1" as="geometry">
            <mxPoint x="339.57000000000005" y="140" as="sourcePoint" />
            <mxPoint x="339.57000000000005" y="180" as="targetPoint" />
          </mxGeometry>
        </mxCell>
        <mxCell id="vSYfUBVNN7IIqY1nTDT4-29" value="" style="endArrow=classic;html=1;rounded=0;" parent="WIyWlLk6GJQsqaUBKTNV-1" edge="1">
          <mxGeometry width="50" height="50" relative="1" as="geometry">
            <mxPoint x="339.57000000000005" y="260" as="sourcePoint" />
            <mxPoint x="339.57000000000005" y="300" as="targetPoint" />
          </mxGeometry>
        </mxCell>
        <mxCell id="vSYfUBVNN7IIqY1nTDT4-30" value="" style="endArrow=classic;html=1;rounded=0;" parent="WIyWlLk6GJQsqaUBKTNV-1" edge="1">
          <mxGeometry width="50" height="50" relative="1" as="geometry">
            <mxPoint x="339.57000000000005" y="380" as="sourcePoint" />
            <mxPoint x="339.57000000000005" y="420" as="targetPoint" />
          </mxGeometry>
        </mxCell>
        <mxCell id="vSYfUBVNN7IIqY1nTDT4-31" value="" style="endArrow=classic;html=1;rounded=0;" parent="WIyWlLk6GJQsqaUBKTNV-1" edge="1">
          <mxGeometry width="50" height="50" relative="1" as="geometry">
            <mxPoint x="679.6" y="-480" as="sourcePoint" />
            <mxPoint x="679.6" y="-440" as="targetPoint" />
          </mxGeometry>
        </mxCell>
        <mxCell id="vSYfUBVNN7IIqY1nTDT4-32" value="" style="endArrow=classic;html=1;rounded=0;" parent="WIyWlLk6GJQsqaUBKTNV-1" edge="1">
          <mxGeometry width="50" height="50" relative="1" as="geometry">
            <mxPoint x="679.38" y="-360" as="sourcePoint" />
            <mxPoint x="679.38" y="-320" as="targetPoint" />
          </mxGeometry>
        </mxCell>
        <mxCell id="vSYfUBVNN7IIqY1nTDT4-33" value="" style="endArrow=classic;html=1;rounded=0;" parent="WIyWlLk6GJQsqaUBKTNV-1" edge="1">
          <mxGeometry width="50" height="50" relative="1" as="geometry">
            <mxPoint x="679.3700000000001" y="-240" as="sourcePoint" />
            <mxPoint x="679.3700000000001" y="-200" as="targetPoint" />
          </mxGeometry>
        </mxCell>
        <mxCell id="vSYfUBVNN7IIqY1nTDT4-34" value="" style="endArrow=classic;html=1;rounded=0;" parent="WIyWlLk6GJQsqaUBKTNV-1" edge="1">
          <mxGeometry width="50" height="50" relative="1" as="geometry">
            <mxPoint x="679.3700000000001" y="-120" as="sourcePoint" />
            <mxPoint x="679.3700000000001" y="-80" as="targetPoint" />
          </mxGeometry>
        </mxCell>
        <mxCell id="vSYfUBVNN7IIqY1nTDT4-35" value="" style="endArrow=classic;html=1;rounded=0;" parent="WIyWlLk6GJQsqaUBKTNV-1" edge="1">
          <mxGeometry width="50" height="50" relative="1" as="geometry">
            <mxPoint x="679.3300000000002" as="sourcePoint" />
            <mxPoint x="679.3300000000002" y="40" as="targetPoint" />
          </mxGeometry>
        </mxCell>
        <mxCell id="vSYfUBVNN7IIqY1nTDT4-36" value="" style="endArrow=classic;html=1;rounded=0;" parent="WIyWlLk6GJQsqaUBKTNV-1" edge="1">
          <mxGeometry width="50" height="50" relative="1" as="geometry">
            <mxPoint x="679.3300000000002" y="120" as="sourcePoint" />
            <mxPoint x="679.3300000000002" y="160" as="targetPoint" />
          </mxGeometry>
        </mxCell>
        <mxCell id="vSYfUBVNN7IIqY1nTDT4-37" value="" style="endArrow=classic;html=1;rounded=0;" parent="WIyWlLk6GJQsqaUBKTNV-1" edge="1">
          <mxGeometry width="50" height="50" relative="1" as="geometry">
            <mxPoint x="679.6200000000001" y="240" as="sourcePoint" />
            <mxPoint x="679.6200000000001" y="280" as="targetPoint" />
          </mxGeometry>
        </mxCell>
        <mxCell id="vSYfUBVNN7IIqY1nTDT4-38" value="" style="endArrow=classic;html=1;rounded=0;" parent="WIyWlLk6GJQsqaUBKTNV-1" edge="1">
          <mxGeometry width="50" height="50" relative="1" as="geometry">
            <mxPoint x="679.4400000000002" y="360" as="sourcePoint" />
            <mxPoint x="679.4400000000002" y="400" as="targetPoint" />
          </mxGeometry>
        </mxCell>
        <mxCell id="vSYfUBVNN7IIqY1nTDT4-39" value="Калибровка системы" style="shape=process;whiteSpace=wrap;html=1;backgroundOutline=1;" parent="WIyWlLk6GJQsqaUBKTNV-1" vertex="1">
          <mxGeometry x="1010" y="-520" width="120" height="60" as="geometry" />
        </mxCell>
        <mxCell id="vSYfUBVNN7IIqY1nTDT4-41" value="" style="endArrow=classic;html=1;rounded=0;" parent="WIyWlLk6GJQsqaUBKTNV-1" edge="1">
          <mxGeometry width="50" height="50" relative="1" as="geometry">
            <mxPoint x="1069.33" y="-460" as="sourcePoint" />
            <mxPoint x="1069.33" y="-420" as="targetPoint" />
          </mxGeometry>
        </mxCell>
        <mxCell id="vSYfUBVNN7IIqY1nTDT4-43" value="Считывание данных с микрофонов" style="rounded=0;whiteSpace=wrap;html=1;" parent="WIyWlLk6GJQsqaUBKTNV-1" vertex="1">
          <mxGeometry x="1010" y="-420" width="120" height="60" as="geometry" />
        </mxCell>
        <mxCell id="vSYfUBVNN7IIqY1nTDT4-44" value="Вычисление среднего уровня шума" style="rounded=0;whiteSpace=wrap;html=1;" parent="WIyWlLk6GJQsqaUBKTNV-1" vertex="1">
          <mxGeometry x="1010" y="-320" width="120" height="60" as="geometry" />
        </mxCell>
        <mxCell id="vSYfUBVNN7IIqY1nTDT4-45" value="" style="endArrow=classic;html=1;rounded=0;" parent="WIyWlLk6GJQsqaUBKTNV-1" edge="1">
          <mxGeometry width="50" height="50" relative="1" as="geometry">
            <mxPoint x="1069.6" y="-360" as="sourcePoint" />
            <mxPoint x="1069.6" y="-320" as="targetPoint" />
          </mxGeometry>
        </mxCell>
        <mxCell id="vSYfUBVNN7IIqY1nTDT4-47" value="" style="endArrow=classic;html=1;rounded=0;" parent="WIyWlLk6GJQsqaUBKTNV-1" edge="1">
          <mxGeometry width="50" height="50" relative="1" as="geometry">
            <mxPoint x="1069.6799999999998" y="-260" as="sourcePoint" />
            <mxPoint x="1069.6799999999998" y="-220" as="targetPoint" />
          </mxGeometry>
        </mxCell>
        <mxCell id="vSYfUBVNN7IIqY1nTDT4-48" value="Результаты калибровки в монитор порта" style="shape=parallelogram;perimeter=parallelogramPerimeter;whiteSpace=wrap;html=1;fixedSize=1;" parent="WIyWlLk6GJQsqaUBKTNV-1" vertex="1">
          <mxGeometry x="1010" y="-220" width="120" height="60" as="geometry" />
        </mxCell>
        <mxCell id="vSYfUBVNN7IIqY1nTDT4-50" value="" style="endArrow=classic;html=1;rounded=0;exitX=0.5;exitY=1;exitDx=0;exitDy=0;" parent="WIyWlLk6GJQsqaUBKTNV-1" edge="1">
          <mxGeometry width="50" height="50" relative="1" as="geometry">
            <mxPoint x="1069.96" y="-160" as="sourcePoint" />
            <mxPoint x="1070" y="-120" as="targetPoint" />
          </mxGeometry>
        </mxCell>
        <mxCell id="vSYfUBVNN7IIqY1nTDT4-52" value="" style="endArrow=classic;html=1;rounded=0;" parent="WIyWlLk6GJQsqaUBKTNV-1" edge="1">
          <mxGeometry width="50" height="50" relative="1" as="geometry">
            <mxPoint x="1069.6399999999999" y="-40" as="sourcePoint" />
            <mxPoint x="1069.6399999999999" as="targetPoint" />
          </mxGeometry>
        </mxCell>
        <mxCell id="vSYfUBVNN7IIqY1nTDT4-53" value="True" style="edgeLabel;html=1;align=center;verticalAlign=middle;resizable=0;points=[];" parent="vSYfUBVNN7IIqY1nTDT4-52" vertex="1" connectable="0">
          <mxGeometry x="-0.1643" relative="1" as="geometry">
            <mxPoint as="offset" />
          </mxGeometry>
        </mxCell>
        <mxCell id="vSYfUBVNN7IIqY1nTDT4-56" value="Анализ аудиосигнала" style="shape=process;whiteSpace=wrap;html=1;backgroundOutline=1;" parent="WIyWlLk6GJQsqaUBKTNV-1" vertex="1">
          <mxGeometry x="1010" width="120" height="60" as="geometry" />
        </mxCell>
        <mxCell id="vSYfUBVNN7IIqY1nTDT4-59" value="" style="endArrow=classic;html=1;rounded=0;" parent="WIyWlLk6GJQsqaUBKTNV-1" edge="1">
          <mxGeometry width="50" height="50" relative="1" as="geometry">
            <mxPoint x="1069.5700000000002" y="60" as="sourcePoint" />
            <mxPoint x="1069.5700000000002" y="100" as="targetPoint" />
          </mxGeometry>
        </mxCell>
        <mxCell id="vSYfUBVNN7IIqY1nTDT4-60" value="Объявить счетчик стабильно низких значений для первого и второго микрофонов, равные 0" style="rounded=0;whiteSpace=wrap;html=1;" parent="WIyWlLk6GJQsqaUBKTNV-1" vertex="1">
          <mxGeometry x="965" y="100" width="210" height="80" as="geometry" />
        </mxCell>
        <mxCell id="vSYfUBVNN7IIqY1nTDT4-61" value="Объявить логические переменные, отвечающие за состояние микрофонов, равные true (true = работает)" style="rounded=0;whiteSpace=wrap;html=1;" parent="WIyWlLk6GJQsqaUBKTNV-1" vertex="1">
          <mxGeometry x="965" y="220" width="210" height="80" as="geometry" />
        </mxCell>
        <mxCell id="vSYfUBVNN7IIqY1nTDT4-63" value="" style="endArrow=classic;html=1;rounded=0;" parent="WIyWlLk6GJQsqaUBKTNV-1" edge="1">
          <mxGeometry width="50" height="50" relative="1" as="geometry">
            <mxPoint x="1069.5700000000002" y="180" as="sourcePoint" />
            <mxPoint x="1069.5700000000002" y="220" as="targetPoint" />
          </mxGeometry>
        </mxCell>
        <mxCell id="vSYfUBVNN7IIqY1nTDT4-64" value="Бесконечный цикл" style="shape=hexagon;perimeter=hexagonPerimeter2;whiteSpace=wrap;html=1;fixedSize=1;" parent="WIyWlLk6GJQsqaUBKTNV-1" vertex="1">
          <mxGeometry x="1010" y="-120" width="120" height="80" as="geometry" />
        </mxCell>
        <mxCell id="vSYfUBVNN7IIqY1nTDT4-65" value="Цикл 256 выборок аудиосигнала" style="shape=hexagon;perimeter=hexagonPerimeter2;whiteSpace=wrap;html=1;fixedSize=1;" parent="WIyWlLk6GJQsqaUBKTNV-1" vertex="1">
          <mxGeometry x="1010" y="340" width="120" height="80" as="geometry" />
        </mxCell>
        <mxCell id="vSYfUBVNN7IIqY1nTDT4-66" value="" style="endArrow=classic;html=1;rounded=0;" parent="WIyWlLk6GJQsqaUBKTNV-1" edge="1">
          <mxGeometry width="50" height="50" relative="1" as="geometry">
            <mxPoint x="1069.7100000000003" y="300" as="sourcePoint" />
            <mxPoint x="1069.7100000000003" y="340" as="targetPoint" />
          </mxGeometry>
        </mxCell>
        <mxCell id="vSYfUBVNN7IIqY1nTDT4-67" value="" style="endArrow=classic;html=1;rounded=0;entryX=0.5;entryY=0;entryDx=0;entryDy=0;" parent="WIyWlLk6GJQsqaUBKTNV-1" target="vSYfUBVNN7IIqY1nTDT4-68" edge="1">
          <mxGeometry width="50" height="50" relative="1" as="geometry">
            <mxPoint x="1069.2300000000002" y="420" as="sourcePoint" />
            <mxPoint x="1069.2300000000002" y="460" as="targetPoint" />
          </mxGeometry>
        </mxCell>
        <mxCell id="vSYfUBVNN7IIqY1nTDT4-156" value="True" style="edgeLabel;html=1;align=center;verticalAlign=middle;resizable=0;points=[];" parent="vSYfUBVNN7IIqY1nTDT4-67" vertex="1" connectable="0">
          <mxGeometry x="-0.1714" y="-1" relative="1" as="geometry">
            <mxPoint as="offset" />
          </mxGeometry>
        </mxCell>
        <mxCell id="vSYfUBVNN7IIqY1nTDT4-68" value="2" style="ellipse;whiteSpace=wrap;html=1;aspect=fixed;" parent="WIyWlLk6GJQsqaUBKTNV-1" vertex="1">
          <mxGeometry x="1050" y="470" width="40" height="40" as="geometry" />
        </mxCell>
        <mxCell id="vSYfUBVNN7IIqY1nTDT4-69" value="2" style="ellipse;whiteSpace=wrap;html=1;aspect=fixed;" parent="WIyWlLk6GJQsqaUBKTNV-1" vertex="1">
          <mxGeometry x="1405" y="-710" width="40" height="40" as="geometry" />
        </mxCell>
        <mxCell id="vSYfUBVNN7IIqY1nTDT4-70" value="" style="endArrow=classic;html=1;rounded=0;" parent="WIyWlLk6GJQsqaUBKTNV-1" edge="1">
          <mxGeometry width="50" height="50" relative="1" as="geometry">
            <mxPoint x="1424.55" y="-670" as="sourcePoint" />
            <mxPoint x="1424.55" y="-630" as="targetPoint" />
          </mxGeometry>
        </mxCell>
        <mxCell id="vSYfUBVNN7IIqY1nTDT4-71" value="Считывание данных с микрофона 1" style="rounded=0;whiteSpace=wrap;html=1;" parent="WIyWlLk6GJQsqaUBKTNV-1" vertex="1">
          <mxGeometry x="1365" y="-510" width="120" height="60" as="geometry" />
        </mxCell>
        <mxCell id="vSYfUBVNN7IIqY1nTDT4-72" value="Сигнал равен 0" style="rhombus;whiteSpace=wrap;html=1;" parent="WIyWlLk6GJQsqaUBKTNV-1" vertex="1">
          <mxGeometry x="1365" y="-410" width="120" height="80" as="geometry" />
        </mxCell>
        <mxCell id="vSYfUBVNN7IIqY1nTDT4-73" value="" style="endArrow=classic;html=1;rounded=0;" parent="WIyWlLk6GJQsqaUBKTNV-1" edge="1">
          <mxGeometry width="50" height="50" relative="1" as="geometry">
            <mxPoint x="1424.6799999999998" y="-450" as="sourcePoint" />
            <mxPoint x="1424.6799999999998" y="-410" as="targetPoint" />
          </mxGeometry>
        </mxCell>
        <mxCell id="vSYfUBVNN7IIqY1nTDT4-75" value="Инкремент счетчика стабильно низких значений" style="rounded=0;whiteSpace=wrap;html=1;" parent="WIyWlLk6GJQsqaUBKTNV-1" vertex="1">
          <mxGeometry x="1525" y="-400" width="120" height="60" as="geometry" />
        </mxCell>
        <mxCell id="vSYfUBVNN7IIqY1nTDT4-76" value="Установка счетчика стабильно низких значений в 0" style="rounded=0;whiteSpace=wrap;html=1;" parent="WIyWlLk6GJQsqaUBKTNV-1" vertex="1">
          <mxGeometry x="1365" y="-290" width="120" height="60" as="geometry" />
        </mxCell>
        <mxCell id="vSYfUBVNN7IIqY1nTDT4-77" value="" style="endArrow=classic;html=1;rounded=0;" parent="WIyWlLk6GJQsqaUBKTNV-1" edge="1">
          <mxGeometry width="50" height="50" relative="1" as="geometry">
            <mxPoint x="1424.6" y="-330" as="sourcePoint" />
            <mxPoint x="1424.6" y="-290" as="targetPoint" />
          </mxGeometry>
        </mxCell>
        <mxCell id="vSYfUBVNN7IIqY1nTDT4-81" value="False" style="edgeLabel;html=1;align=center;verticalAlign=middle;resizable=0;points=[];" parent="vSYfUBVNN7IIqY1nTDT4-77" vertex="1" connectable="0">
          <mxGeometry x="-0.1442" relative="1" as="geometry">
            <mxPoint as="offset" />
          </mxGeometry>
        </mxCell>
        <mxCell id="vSYfUBVNN7IIqY1nTDT4-78" value="" style="endArrow=classic;html=1;rounded=0;entryX=0;entryY=0.5;entryDx=0;entryDy=0;" parent="WIyWlLk6GJQsqaUBKTNV-1" target="vSYfUBVNN7IIqY1nTDT4-75" edge="1">
          <mxGeometry width="50" height="50" relative="1" as="geometry">
            <mxPoint x="1485" y="-370" as="sourcePoint" />
            <mxPoint x="1485" y="-330" as="targetPoint" />
          </mxGeometry>
        </mxCell>
        <mxCell id="vSYfUBVNN7IIqY1nTDT4-79" value="True" style="edgeLabel;html=1;align=center;verticalAlign=middle;resizable=0;points=[];" parent="vSYfUBVNN7IIqY1nTDT4-78" vertex="1" connectable="0">
          <mxGeometry x="-0.4033" relative="1" as="geometry">
            <mxPoint as="offset" />
          </mxGeometry>
        </mxCell>
        <mxCell id="vSYfUBVNN7IIqY1nTDT4-82" value="" style="endArrow=none;html=1;rounded=0;" parent="WIyWlLk6GJQsqaUBKTNV-1" edge="1">
          <mxGeometry width="50" height="50" relative="1" as="geometry">
            <mxPoint x="1585" y="-110" as="sourcePoint" />
            <mxPoint x="1585" y="-340" as="targetPoint" />
          </mxGeometry>
        </mxCell>
        <mxCell id="vSYfUBVNN7IIqY1nTDT4-83" value="" style="endArrow=classic;html=1;rounded=0;" parent="WIyWlLk6GJQsqaUBKTNV-1" edge="1">
          <mxGeometry width="50" height="50" relative="1" as="geometry">
            <mxPoint x="1585" y="-110" as="sourcePoint" />
            <mxPoint x="1425" y="-110" as="targetPoint" />
          </mxGeometry>
        </mxCell>
        <mxCell id="vSYfUBVNN7IIqY1nTDT4-85" value="" style="endArrow=classic;html=1;rounded=0;" parent="WIyWlLk6GJQsqaUBKTNV-1" edge="1">
          <mxGeometry width="50" height="50" relative="1" as="geometry">
            <mxPoint x="1424.5199999999998" y="-230" as="sourcePoint" />
            <mxPoint x="1424.5199999999998" y="-190" as="targetPoint" />
          </mxGeometry>
        </mxCell>
        <mxCell id="vSYfUBVNN7IIqY1nTDT4-87" value="Cчетчик&lt;br&gt;стабильно низких значений &lt;br&gt;больше либо равен 5 и &lt;br&gt;состояние &lt;br&gt;микрофона true" style="rhombus;whiteSpace=wrap;html=1;" parent="WIyWlLk6GJQsqaUBKTNV-1" vertex="1">
          <mxGeometry x="1320" y="-90" width="210" height="130" as="geometry" />
        </mxCell>
        <mxCell id="vSYfUBVNN7IIqY1nTDT4-88" value="" style="endArrow=classic;html=1;rounded=0;entryX=0;entryY=0.5;entryDx=0;entryDy=0;" parent="WIyWlLk6GJQsqaUBKTNV-1" target="vSYfUBVNN7IIqY1nTDT4-92" edge="1">
          <mxGeometry width="50" height="50" relative="1" as="geometry">
            <mxPoint x="1530" y="-25.22" as="sourcePoint" />
            <mxPoint x="1570" y="-25.22" as="targetPoint" />
          </mxGeometry>
        </mxCell>
        <mxCell id="vSYfUBVNN7IIqY1nTDT4-89" value="True" style="edgeLabel;html=1;align=center;verticalAlign=middle;resizable=0;points=[];" parent="vSYfUBVNN7IIqY1nTDT4-88" vertex="1" connectable="0">
          <mxGeometry x="-0.4033" relative="1" as="geometry">
            <mxPoint as="offset" />
          </mxGeometry>
        </mxCell>
        <mxCell id="vSYfUBVNN7IIqY1nTDT4-90" value="" style="endArrow=classic;html=1;rounded=0;" parent="WIyWlLk6GJQsqaUBKTNV-1" edge="1">
          <mxGeometry width="50" height="50" relative="1" as="geometry">
            <mxPoint x="1424.58" y="40" as="sourcePoint" />
            <mxPoint x="1424.58" y="80" as="targetPoint" />
          </mxGeometry>
        </mxCell>
        <mxCell id="vSYfUBVNN7IIqY1nTDT4-91" value="False" style="edgeLabel;html=1;align=center;verticalAlign=middle;resizable=0;points=[];" parent="vSYfUBVNN7IIqY1nTDT4-90" vertex="1" connectable="0">
          <mxGeometry x="-0.1442" relative="1" as="geometry">
            <mxPoint as="offset" />
          </mxGeometry>
        </mxCell>
        <mxCell id="vSYfUBVNN7IIqY1nTDT4-92" value="Сообщения о том, &lt;br&gt;что микрофон 1 отключен или не работает" style="shape=parallelogram;perimeter=parallelogramPerimeter;whiteSpace=wrap;html=1;fixedSize=1;" parent="WIyWlLk6GJQsqaUBKTNV-1" vertex="1">
          <mxGeometry x="1565" y="-70" width="210" height="90" as="geometry" />
        </mxCell>
        <mxCell id="vSYfUBVNN7IIqY1nTDT4-93" value="Cчетчик&lt;br&gt;стабильно низких значений &lt;br&gt;больше равен 0 и &lt;br&gt;состояние &lt;br&gt;микрофона false" style="rhombus;whiteSpace=wrap;html=1;" parent="WIyWlLk6GJQsqaUBKTNV-1" vertex="1">
          <mxGeometry x="1320" y="80" width="210" height="130" as="geometry" />
        </mxCell>
        <mxCell id="vSYfUBVNN7IIqY1nTDT4-96" value="" style="endArrow=classic;html=1;rounded=0;entryX=0;entryY=0.5;entryDx=0;entryDy=0;" parent="WIyWlLk6GJQsqaUBKTNV-1" edge="1">
          <mxGeometry width="50" height="50" relative="1" as="geometry">
            <mxPoint x="1530" y="144.57" as="sourcePoint" />
            <mxPoint x="1575" y="144.78999999999996" as="targetPoint" />
          </mxGeometry>
        </mxCell>
        <mxCell id="vSYfUBVNN7IIqY1nTDT4-97" value="True" style="edgeLabel;html=1;align=center;verticalAlign=middle;resizable=0;points=[];" parent="vSYfUBVNN7IIqY1nTDT4-96" vertex="1" connectable="0">
          <mxGeometry x="-0.4033" relative="1" as="geometry">
            <mxPoint as="offset" />
          </mxGeometry>
        </mxCell>
        <mxCell id="vSYfUBVNN7IIqY1nTDT4-98" value="" style="endArrow=classic;html=1;rounded=0;entryX=0.5;entryY=0;entryDx=0;entryDy=0;" parent="WIyWlLk6GJQsqaUBKTNV-1" target="vSYfUBVNN7IIqY1nTDT4-104" edge="1">
          <mxGeometry width="50" height="50" relative="1" as="geometry">
            <mxPoint x="1424.57" y="210" as="sourcePoint" />
            <mxPoint x="1424.57" y="250" as="targetPoint" />
          </mxGeometry>
        </mxCell>
        <mxCell id="vSYfUBVNN7IIqY1nTDT4-99" value="False" style="edgeLabel;html=1;align=center;verticalAlign=middle;resizable=0;points=[];" parent="vSYfUBVNN7IIqY1nTDT4-98" vertex="1" connectable="0">
          <mxGeometry x="-0.1442" relative="1" as="geometry">
            <mxPoint as="offset" />
          </mxGeometry>
        </mxCell>
        <mxCell id="vSYfUBVNN7IIqY1nTDT4-100" value="Сообщения о том, &lt;br&gt;что микрофон 1 восстановил &lt;br&gt;работу" style="shape=parallelogram;perimeter=parallelogramPerimeter;whiteSpace=wrap;html=1;fixedSize=1;" parent="WIyWlLk6GJQsqaUBKTNV-1" vertex="1">
          <mxGeometry x="1565" y="100" width="210" height="90" as="geometry" />
        </mxCell>
        <mxCell id="vSYfUBVNN7IIqY1nTDT4-104" value="Считывание данных с микрофона 2" style="rounded=0;whiteSpace=wrap;html=1;" parent="WIyWlLk6GJQsqaUBKTNV-1" vertex="1">
          <mxGeometry x="1365" y="270" width="120" height="60" as="geometry" />
        </mxCell>
        <mxCell id="vSYfUBVNN7IIqY1nTDT4-106" value="" style="endArrow=none;html=1;rounded=0;entryX=1;entryY=0.5;entryDx=0;entryDy=0;" parent="WIyWlLk6GJQsqaUBKTNV-1" edge="1">
          <mxGeometry width="50" height="50" relative="1" as="geometry">
            <mxPoint x="1845" y="-25.069999999999993" as="sourcePoint" />
            <mxPoint x="1765" y="-25.069999999999993" as="targetPoint" />
          </mxGeometry>
        </mxCell>
        <mxCell id="vSYfUBVNN7IIqY1nTDT4-107" value="" style="endArrow=none;html=1;rounded=0;entryX=1;entryY=0.5;entryDx=0;entryDy=0;" parent="WIyWlLk6GJQsqaUBKTNV-1" edge="1">
          <mxGeometry width="50" height="50" relative="1" as="geometry">
            <mxPoint x="1845" y="150" as="sourcePoint" />
            <mxPoint x="1765" y="150" as="targetPoint" />
          </mxGeometry>
        </mxCell>
        <mxCell id="vSYfUBVNN7IIqY1nTDT4-110" value="" style="endArrow=none;html=1;rounded=0;" parent="WIyWlLk6GJQsqaUBKTNV-1" edge="1">
          <mxGeometry width="50" height="50" relative="1" as="geometry">
            <mxPoint x="1845" y="220.00000000000003" as="sourcePoint" />
            <mxPoint x="1845" y="-25" as="targetPoint" />
          </mxGeometry>
        </mxCell>
        <mxCell id="vSYfUBVNN7IIqY1nTDT4-112" value="" style="endArrow=classic;html=1;rounded=0;" parent="WIyWlLk6GJQsqaUBKTNV-1" edge="1">
          <mxGeometry width="50" height="50" relative="1" as="geometry">
            <mxPoint x="1845" y="220" as="sourcePoint" />
            <mxPoint x="1425" y="220" as="targetPoint" />
          </mxGeometry>
        </mxCell>
        <mxCell id="vSYfUBVNN7IIqY1nTDT4-122" value="" style="endArrow=classic;html=1;rounded=0;" parent="WIyWlLk6GJQsqaUBKTNV-1" edge="1">
          <mxGeometry width="50" height="50" relative="1" as="geometry">
            <mxPoint x="1424.3700000000003" y="330" as="sourcePoint" />
            <mxPoint x="1424.3700000000003" y="370" as="targetPoint" />
          </mxGeometry>
        </mxCell>
        <mxCell id="vSYfUBVNN7IIqY1nTDT4-123" value="3" style="ellipse;whiteSpace=wrap;html=1;aspect=fixed;" parent="WIyWlLk6GJQsqaUBKTNV-1" vertex="1">
          <mxGeometry x="1405" y="370" width="40" height="40" as="geometry" />
        </mxCell>
        <mxCell id="vSYfUBVNN7IIqY1nTDT4-124" value="3" style="ellipse;whiteSpace=wrap;html=1;aspect=fixed;" parent="WIyWlLk6GJQsqaUBKTNV-1" vertex="1">
          <mxGeometry x="1975" y="-710" width="40" height="40" as="geometry" />
        </mxCell>
        <mxCell id="vSYfUBVNN7IIqY1nTDT4-125" value="" style="endArrow=classic;html=1;rounded=0;" parent="WIyWlLk6GJQsqaUBKTNV-1" edge="1">
          <mxGeometry width="50" height="50" relative="1" as="geometry">
            <mxPoint x="1994.57" y="-670" as="sourcePoint" />
            <mxPoint x="1994.57" y="-630" as="targetPoint" />
          </mxGeometry>
        </mxCell>
        <mxCell id="vSYfUBVNN7IIqY1nTDT4-127" value="Считывание данных с микрофона 2" style="rounded=0;whiteSpace=wrap;html=1;" parent="WIyWlLk6GJQsqaUBKTNV-1" vertex="1">
          <mxGeometry x="1935" y="-630" width="120" height="60" as="geometry" />
        </mxCell>
        <mxCell id="vSYfUBVNN7IIqY1nTDT4-128" value="Сигнал равен 0" style="rhombus;whiteSpace=wrap;html=1;" parent="WIyWlLk6GJQsqaUBKTNV-1" vertex="1">
          <mxGeometry x="1935" y="-530" width="120" height="80" as="geometry" />
        </mxCell>
        <mxCell id="vSYfUBVNN7IIqY1nTDT4-129" value="" style="endArrow=classic;html=1;rounded=0;" parent="WIyWlLk6GJQsqaUBKTNV-1" edge="1">
          <mxGeometry width="50" height="50" relative="1" as="geometry">
            <mxPoint x="1994.6799999999998" y="-570" as="sourcePoint" />
            <mxPoint x="1994.6799999999998" y="-530" as="targetPoint" />
          </mxGeometry>
        </mxCell>
        <mxCell id="vSYfUBVNN7IIqY1nTDT4-130" value="Инкремент счетчика стабильно низких значений" style="rounded=0;whiteSpace=wrap;html=1;" parent="WIyWlLk6GJQsqaUBKTNV-1" vertex="1">
          <mxGeometry x="2095" y="-520" width="120" height="60" as="geometry" />
        </mxCell>
        <mxCell id="vSYfUBVNN7IIqY1nTDT4-131" value="Установка счетчика стабильно низких значений в 0" style="rounded=0;whiteSpace=wrap;html=1;" parent="WIyWlLk6GJQsqaUBKTNV-1" vertex="1">
          <mxGeometry x="1935" y="-410" width="120" height="60" as="geometry" />
        </mxCell>
        <mxCell id="vSYfUBVNN7IIqY1nTDT4-132" value="" style="endArrow=classic;html=1;rounded=0;" parent="WIyWlLk6GJQsqaUBKTNV-1" edge="1">
          <mxGeometry width="50" height="50" relative="1" as="geometry">
            <mxPoint x="1994.6" y="-450" as="sourcePoint" />
            <mxPoint x="1994.6" y="-410" as="targetPoint" />
          </mxGeometry>
        </mxCell>
        <mxCell id="vSYfUBVNN7IIqY1nTDT4-133" value="False" style="edgeLabel;html=1;align=center;verticalAlign=middle;resizable=0;points=[];" parent="vSYfUBVNN7IIqY1nTDT4-132" vertex="1" connectable="0">
          <mxGeometry x="-0.1442" relative="1" as="geometry">
            <mxPoint as="offset" />
          </mxGeometry>
        </mxCell>
        <mxCell id="vSYfUBVNN7IIqY1nTDT4-134" value="" style="endArrow=classic;html=1;rounded=0;entryX=0;entryY=0.5;entryDx=0;entryDy=0;" parent="WIyWlLk6GJQsqaUBKTNV-1" target="vSYfUBVNN7IIqY1nTDT4-130" edge="1">
          <mxGeometry width="50" height="50" relative="1" as="geometry">
            <mxPoint x="2055" y="-490" as="sourcePoint" />
            <mxPoint x="2055" y="-450" as="targetPoint" />
          </mxGeometry>
        </mxCell>
        <mxCell id="vSYfUBVNN7IIqY1nTDT4-135" value="True" style="edgeLabel;html=1;align=center;verticalAlign=middle;resizable=0;points=[];" parent="vSYfUBVNN7IIqY1nTDT4-134" vertex="1" connectable="0">
          <mxGeometry x="-0.4033" relative="1" as="geometry">
            <mxPoint as="offset" />
          </mxGeometry>
        </mxCell>
        <mxCell id="vSYfUBVNN7IIqY1nTDT4-136" value="" style="endArrow=none;html=1;rounded=0;" parent="WIyWlLk6GJQsqaUBKTNV-1" edge="1">
          <mxGeometry width="50" height="50" relative="1" as="geometry">
            <mxPoint x="2155" y="-240" as="sourcePoint" />
            <mxPoint x="2155" y="-460" as="targetPoint" />
          </mxGeometry>
        </mxCell>
        <mxCell id="vSYfUBVNN7IIqY1nTDT4-137" value="" style="endArrow=classic;html=1;rounded=0;" parent="WIyWlLk6GJQsqaUBKTNV-1" edge="1">
          <mxGeometry width="50" height="50" relative="1" as="geometry">
            <mxPoint x="2155" y="-240" as="sourcePoint" />
            <mxPoint x="1995" y="-240" as="targetPoint" />
          </mxGeometry>
        </mxCell>
        <mxCell id="vSYfUBVNN7IIqY1nTDT4-138" value="" style="endArrow=classic;html=1;rounded=0;" parent="WIyWlLk6GJQsqaUBKTNV-1" edge="1">
          <mxGeometry width="50" height="50" relative="1" as="geometry">
            <mxPoint x="1994.5199999999998" y="-350" as="sourcePoint" />
            <mxPoint x="1994.5199999999998" y="-310" as="targetPoint" />
          </mxGeometry>
        </mxCell>
        <mxCell id="vSYfUBVNN7IIqY1nTDT4-139" value="Cчетчик&lt;br&gt;стабильно низких значений &lt;br&gt;больше либо равен 5 и &lt;br&gt;состояние &lt;br&gt;микрофона true" style="rhombus;whiteSpace=wrap;html=1;" parent="WIyWlLk6GJQsqaUBKTNV-1" vertex="1">
          <mxGeometry x="1891.39" y="-210" width="210" height="130" as="geometry" />
        </mxCell>
        <mxCell id="vSYfUBVNN7IIqY1nTDT4-140" value="" style="endArrow=classic;html=1;rounded=0;entryX=0;entryY=0.5;entryDx=0;entryDy=0;" parent="WIyWlLk6GJQsqaUBKTNV-1" target="vSYfUBVNN7IIqY1nTDT4-144" edge="1">
          <mxGeometry width="50" height="50" relative="1" as="geometry">
            <mxPoint x="2101.39" y="-145.21999999999997" as="sourcePoint" />
            <mxPoint x="2141.39" y="-145.21999999999997" as="targetPoint" />
          </mxGeometry>
        </mxCell>
        <mxCell id="vSYfUBVNN7IIqY1nTDT4-141" value="True" style="edgeLabel;html=1;align=center;verticalAlign=middle;resizable=0;points=[];" parent="vSYfUBVNN7IIqY1nTDT4-140" vertex="1" connectable="0">
          <mxGeometry x="-0.4033" relative="1" as="geometry">
            <mxPoint as="offset" />
          </mxGeometry>
        </mxCell>
        <mxCell id="vSYfUBVNN7IIqY1nTDT4-142" value="" style="endArrow=classic;html=1;rounded=0;" parent="WIyWlLk6GJQsqaUBKTNV-1" edge="1">
          <mxGeometry width="50" height="50" relative="1" as="geometry">
            <mxPoint x="1995.97" y="-80" as="sourcePoint" />
            <mxPoint x="1995.97" y="-40" as="targetPoint" />
          </mxGeometry>
        </mxCell>
        <mxCell id="vSYfUBVNN7IIqY1nTDT4-143" value="False" style="edgeLabel;html=1;align=center;verticalAlign=middle;resizable=0;points=[];" parent="vSYfUBVNN7IIqY1nTDT4-142" vertex="1" connectable="0">
          <mxGeometry x="-0.1442" relative="1" as="geometry">
            <mxPoint as="offset" />
          </mxGeometry>
        </mxCell>
        <mxCell id="vSYfUBVNN7IIqY1nTDT4-144" value="Сообщения о том, &lt;br&gt;что микрофон 2 отключен или не работает" style="shape=parallelogram;perimeter=parallelogramPerimeter;whiteSpace=wrap;html=1;fixedSize=1;" parent="WIyWlLk6GJQsqaUBKTNV-1" vertex="1">
          <mxGeometry x="2136.39" y="-190" width="210" height="90" as="geometry" />
        </mxCell>
        <mxCell id="vSYfUBVNN7IIqY1nTDT4-145" value="Cчетчик&lt;br&gt;стабильно низких значений &lt;br&gt;больше равен 0 и &lt;br&gt;состояние &lt;br&gt;микрофона false" style="rhombus;whiteSpace=wrap;html=1;" parent="WIyWlLk6GJQsqaUBKTNV-1" vertex="1">
          <mxGeometry x="1891.39" y="-40" width="210" height="130" as="geometry" />
        </mxCell>
        <mxCell id="vSYfUBVNN7IIqY1nTDT4-146" value="" style="endArrow=classic;html=1;rounded=0;entryX=0;entryY=0.5;entryDx=0;entryDy=0;" parent="WIyWlLk6GJQsqaUBKTNV-1" edge="1">
          <mxGeometry width="50" height="50" relative="1" as="geometry">
            <mxPoint x="2101.39" y="24.569999999999993" as="sourcePoint" />
            <mxPoint x="2146.39" y="24.789999999999964" as="targetPoint" />
          </mxGeometry>
        </mxCell>
        <mxCell id="vSYfUBVNN7IIqY1nTDT4-147" value="True" style="edgeLabel;html=1;align=center;verticalAlign=middle;resizable=0;points=[];" parent="vSYfUBVNN7IIqY1nTDT4-146" vertex="1" connectable="0">
          <mxGeometry x="-0.4033" relative="1" as="geometry">
            <mxPoint as="offset" />
          </mxGeometry>
        </mxCell>
        <mxCell id="vSYfUBVNN7IIqY1nTDT4-150" value="Сообщения о том, &lt;br&gt;что микрофон 2 восстановил &lt;br&gt;работу" style="shape=parallelogram;perimeter=parallelogramPerimeter;whiteSpace=wrap;html=1;fixedSize=1;" parent="WIyWlLk6GJQsqaUBKTNV-1" vertex="1">
          <mxGeometry x="2136.39" y="-20" width="210" height="90" as="geometry" />
        </mxCell>
        <mxCell id="vSYfUBVNN7IIqY1nTDT4-152" value="" style="endArrow=none;html=1;rounded=0;entryX=1;entryY=0.5;entryDx=0;entryDy=0;" parent="WIyWlLk6GJQsqaUBKTNV-1" edge="1">
          <mxGeometry width="50" height="50" relative="1" as="geometry">
            <mxPoint x="2416.39" y="-145.07" as="sourcePoint" />
            <mxPoint x="2336.39" y="-145.07" as="targetPoint" />
          </mxGeometry>
        </mxCell>
        <mxCell id="vSYfUBVNN7IIqY1nTDT4-153" value="" style="endArrow=none;html=1;rounded=0;entryX=1;entryY=0.5;entryDx=0;entryDy=0;" parent="WIyWlLk6GJQsqaUBKTNV-1" edge="1">
          <mxGeometry width="50" height="50" relative="1" as="geometry">
            <mxPoint x="2416.39" y="30" as="sourcePoint" />
            <mxPoint x="2336.39" y="30" as="targetPoint" />
          </mxGeometry>
        </mxCell>
        <mxCell id="vSYfUBVNN7IIqY1nTDT4-154" value="" style="endArrow=none;html=1;rounded=0;" parent="WIyWlLk6GJQsqaUBKTNV-1" edge="1">
          <mxGeometry width="50" height="50" relative="1" as="geometry">
            <mxPoint x="2416.39" y="100" as="sourcePoint" />
            <mxPoint x="2416.39" y="-145" as="targetPoint" />
          </mxGeometry>
        </mxCell>
        <mxCell id="vSYfUBVNN7IIqY1nTDT4-155" value="" style="endArrow=classic;html=1;rounded=0;" parent="WIyWlLk6GJQsqaUBKTNV-1" edge="1">
          <mxGeometry width="50" height="50" relative="1" as="geometry">
            <mxPoint x="2416.39" y="100" as="sourcePoint" />
            <mxPoint x="1996.39" y="100" as="targetPoint" />
          </mxGeometry>
        </mxCell>
        <mxCell id="vSYfUBVNN7IIqY1nTDT4-159" value="" style="endArrow=none;html=1;rounded=0;" parent="WIyWlLk6GJQsqaUBKTNV-1" edge="1">
          <mxGeometry width="50" height="50" relative="1" as="geometry">
            <mxPoint x="1991.39" y="417.78" as="sourcePoint" />
            <mxPoint x="1991.39" y="417.78" as="targetPoint" />
          </mxGeometry>
        </mxCell>
        <mxCell id="vSYfUBVNN7IIqY1nTDT4-161" value="Сохранение в переменную среднего сигнала их среднего" style="rounded=0;whiteSpace=wrap;html=1;" parent="WIyWlLk6GJQsqaUBKTNV-1" vertex="1">
          <mxGeometry x="2146.39" y="175" width="120" height="60" as="geometry" />
        </mxCell>
        <mxCell id="vSYfUBVNN7IIqY1nTDT4-163" value="" style="endArrow=none;html=1;rounded=0;entryX=0.5;entryY=1;entryDx=0;entryDy=0;" parent="WIyWlLk6GJQsqaUBKTNV-1" edge="1">
          <mxGeometry width="50" height="50" relative="1" as="geometry">
            <mxPoint x="1996" y="430" as="sourcePoint" />
            <mxPoint x="1996.15" y="370" as="targetPoint" />
          </mxGeometry>
        </mxCell>
        <mxCell id="vSYfUBVNN7IIqY1nTDT4-162" value="Сохранение среднего значения сигнала в массив для обработки" style="rounded=0;whiteSpace=wrap;html=1;" parent="WIyWlLk6GJQsqaUBKTNV-1" vertex="1">
          <mxGeometry x="1936.39" y="310" width="120" height="60" as="geometry" />
        </mxCell>
        <mxCell id="vSYfUBVNN7IIqY1nTDT4-167" value="" style="endArrow=classic;html=1;rounded=0;" parent="WIyWlLk6GJQsqaUBKTNV-1" edge="1">
          <mxGeometry width="50" height="50" relative="1" as="geometry">
            <mxPoint x="1996.05" y="270" as="sourcePoint" />
            <mxPoint x="1996.05" y="310" as="targetPoint" />
          </mxGeometry>
        </mxCell>
        <mxCell id="vSYfUBVNN7IIqY1nTDT4-168" value="False" style="edgeLabel;html=1;align=center;verticalAlign=middle;resizable=0;points=[];" parent="vSYfUBVNN7IIqY1nTDT4-167" vertex="1" connectable="0">
          <mxGeometry x="-0.1442" relative="1" as="geometry">
            <mxPoint as="offset" />
          </mxGeometry>
        </mxCell>
        <mxCell id="vSYfUBVNN7IIqY1nTDT4-169" value="" style="endArrow=classic;html=1;rounded=0;exitX=0;exitY=0.5;exitDx=0;exitDy=0;" parent="WIyWlLk6GJQsqaUBKTNV-1" source="vSYfUBVNN7IIqY1nTDT4-65" edge="1">
          <mxGeometry width="50" height="50" relative="1" as="geometry">
            <mxPoint x="964.3100000000003" y="380" as="sourcePoint" />
            <mxPoint x="960" y="470" as="targetPoint" />
            <Array as="points">
              <mxPoint x="960" y="380" />
            </Array>
          </mxGeometry>
        </mxCell>
        <mxCell id="vSYfUBVNN7IIqY1nTDT4-170" value="False" style="edgeLabel;html=1;align=center;verticalAlign=middle;resizable=0;points=[];" parent="vSYfUBVNN7IIqY1nTDT4-169" vertex="1" connectable="0">
          <mxGeometry x="-0.7811" relative="1" as="geometry">
            <mxPoint as="offset" />
          </mxGeometry>
        </mxCell>
        <mxCell id="vSYfUBVNN7IIqY1nTDT4-171" value="Применение быстрого преобразования Хартли" style="rounded=0;whiteSpace=wrap;html=1;" parent="WIyWlLk6GJQsqaUBKTNV-1" vertex="1">
          <mxGeometry x="900" y="470" width="120" height="60" as="geometry" />
        </mxCell>
        <mxCell id="vSYfUBVNN7IIqY1nTDT4-176" value="" style="endArrow=classic;html=1;rounded=0;" parent="WIyWlLk6GJQsqaUBKTNV-1" edge="1">
          <mxGeometry width="50" height="50" relative="1" as="geometry">
            <mxPoint x="959.3700000000003" y="530" as="sourcePoint" />
            <mxPoint x="959.3700000000003" y="570" as="targetPoint" />
          </mxGeometry>
        </mxCell>
        <mxCell id="vSYfUBVNN7IIqY1nTDT4-177" value="4" style="ellipse;whiteSpace=wrap;html=1;aspect=fixed;" parent="WIyWlLk6GJQsqaUBKTNV-1" vertex="1">
          <mxGeometry x="940" y="570" width="40" height="40" as="geometry" />
        </mxCell>
        <mxCell id="vSYfUBVNN7IIqY1nTDT4-178" value="4" style="ellipse;whiteSpace=wrap;html=1;aspect=fixed;" parent="WIyWlLk6GJQsqaUBKTNV-1" vertex="1">
          <mxGeometry x="2550" y="-520" width="40" height="40" as="geometry" />
        </mxCell>
        <mxCell id="vSYfUBVNN7IIqY1nTDT4-179" value="" style="endArrow=classic;html=1;rounded=0;" parent="WIyWlLk6GJQsqaUBKTNV-1" edge="1">
          <mxGeometry width="50" height="50" relative="1" as="geometry">
            <mxPoint x="2570" y="-480" as="sourcePoint" />
            <mxPoint x="2570" y="-440" as="targetPoint" />
          </mxGeometry>
        </mxCell>
        <mxCell id="vSYfUBVNN7IIqY1nTDT4-180" value="Цикл &lt;br&gt;просматривает 128 полос спектра" style="shape=hexagon;perimeter=hexagonPerimeter2;whiteSpace=wrap;html=1;fixedSize=1;" parent="WIyWlLk6GJQsqaUBKTNV-1" vertex="1">
          <mxGeometry x="2510" y="-440" width="120" height="80" as="geometry" />
        </mxCell>
        <mxCell id="vSYfUBVNN7IIqY1nTDT4-182" value="" style="endArrow=classic;html=1;rounded=0;" parent="WIyWlLk6GJQsqaUBKTNV-1" edge="1">
          <mxGeometry width="50" height="50" relative="1" as="geometry">
            <mxPoint x="2569.47" y="-360" as="sourcePoint" />
            <mxPoint x="2569.47" y="-320" as="targetPoint" />
          </mxGeometry>
        </mxCell>
        <mxCell id="vSYfUBVNN7IIqY1nTDT4-187" value="False" style="edgeLabel;html=1;align=center;verticalAlign=middle;resizable=0;points=[];" parent="vSYfUBVNN7IIqY1nTDT4-182" vertex="1" connectable="0">
          <mxGeometry x="-0.4761" y="2" relative="1" as="geometry">
            <mxPoint as="offset" />
          </mxGeometry>
        </mxCell>
        <mxCell id="vSYfUBVNN7IIqY1nTDT4-183" value="Нули для значений ниже порога.&lt;br&gt;Применение коэффициента усиления. нормализуем значения." style="rounded=0;whiteSpace=wrap;html=1;" parent="WIyWlLk6GJQsqaUBKTNV-1" vertex="1">
          <mxGeometry x="2670" y="-440" width="210" height="80" as="geometry" />
        </mxCell>
        <mxCell id="vSYfUBVNN7IIqY1nTDT4-184" value="" style="endArrow=classic;html=1;rounded=0;entryX=0;entryY=0.5;entryDx=0;entryDy=0;" parent="WIyWlLk6GJQsqaUBKTNV-1" edge="1">
          <mxGeometry width="50" height="50" relative="1" as="geometry">
            <mxPoint x="2630" y="-400.43" as="sourcePoint" />
            <mxPoint x="2670" y="-400.43" as="targetPoint" />
          </mxGeometry>
        </mxCell>
        <mxCell id="vSYfUBVNN7IIqY1nTDT4-185" value="True" style="edgeLabel;html=1;align=center;verticalAlign=middle;resizable=0;points=[];" parent="vSYfUBVNN7IIqY1nTDT4-184" vertex="1" connectable="0">
          <mxGeometry x="-0.4033" relative="1" as="geometry">
            <mxPoint as="offset" />
          </mxGeometry>
        </mxCell>
        <mxCell id="vSYfUBVNN7IIqY1nTDT4-190" value="Очищение дисплея" style="rounded=0;whiteSpace=wrap;html=1;" parent="WIyWlLk6GJQsqaUBKTNV-1" vertex="1">
          <mxGeometry x="2510" y="-320" width="120" height="60" as="geometry" />
        </mxCell>
        <mxCell id="vSYfUBVNN7IIqY1nTDT4-192" value="Цикл &lt;br&gt;просматривает 32 столбца матрицы" style="shape=hexagon;perimeter=hexagonPerimeter2;whiteSpace=wrap;html=1;fixedSize=1;" parent="WIyWlLk6GJQsqaUBKTNV-1" vertex="1">
          <mxGeometry x="2510" y="-220" width="120" height="80" as="geometry" />
        </mxCell>
        <mxCell id="vSYfUBVNN7IIqY1nTDT4-194" value="" style="endArrow=classic;html=1;rounded=0;" parent="WIyWlLk6GJQsqaUBKTNV-1" edge="1">
          <mxGeometry width="50" height="50" relative="1" as="geometry">
            <mxPoint x="2569.52" y="-260" as="sourcePoint" />
            <mxPoint x="2569.52" y="-220" as="targetPoint" />
          </mxGeometry>
        </mxCell>
        <mxCell id="vSYfUBVNN7IIqY1nTDT4-195" value="" style="endArrow=none;html=1;rounded=0;exitX=1;exitY=0.5;exitDx=0;exitDy=0;" parent="WIyWlLk6GJQsqaUBKTNV-1" source="vSYfUBVNN7IIqY1nTDT4-183" edge="1">
          <mxGeometry width="50" height="50" relative="1" as="geometry">
            <mxPoint x="2750" y="-290" as="sourcePoint" />
            <mxPoint x="2920" y="-400" as="targetPoint" />
          </mxGeometry>
        </mxCell>
        <mxCell id="vSYfUBVNN7IIqY1nTDT4-196" value="" style="endArrow=none;html=1;rounded=0;" parent="WIyWlLk6GJQsqaUBKTNV-1" edge="1">
          <mxGeometry width="50" height="50" relative="1" as="geometry">
            <mxPoint x="2920" y="-460" as="sourcePoint" />
            <mxPoint x="2920" y="-400" as="targetPoint" />
          </mxGeometry>
        </mxCell>
        <mxCell id="vSYfUBVNN7IIqY1nTDT4-197" value="" style="endArrow=classic;html=1;rounded=0;" parent="WIyWlLk6GJQsqaUBKTNV-1" edge="1">
          <mxGeometry width="50" height="50" relative="1" as="geometry">
            <mxPoint x="2920" y="-460" as="sourcePoint" />
            <mxPoint x="2570" y="-460" as="targetPoint" />
          </mxGeometry>
        </mxCell>
        <mxCell id="vSYfUBVNN7IIqY1nTDT4-198" value="" style="endArrow=classic;html=1;rounded=0;entryX=0;entryY=0.5;entryDx=0;entryDy=0;" parent="WIyWlLk6GJQsqaUBKTNV-1" edge="1">
          <mxGeometry width="50" height="50" relative="1" as="geometry">
            <mxPoint x="2630" y="-180.48000000000002" as="sourcePoint" />
            <mxPoint x="2670" y="-180.48000000000002" as="targetPoint" />
          </mxGeometry>
        </mxCell>
        <mxCell id="vSYfUBVNN7IIqY1nTDT4-199" value="True" style="edgeLabel;html=1;align=center;verticalAlign=middle;resizable=0;points=[];" parent="vSYfUBVNN7IIqY1nTDT4-198" vertex="1" connectable="0">
          <mxGeometry x="-0.4033" relative="1" as="geometry">
            <mxPoint as="offset" />
          </mxGeometry>
        </mxCell>
        <mxCell id="vSYfUBVNN7IIqY1nTDT4-200" value="" style="endArrow=classic;html=1;rounded=0;" parent="WIyWlLk6GJQsqaUBKTNV-1" edge="1">
          <mxGeometry width="50" height="50" relative="1" as="geometry">
            <mxPoint x="2569.52" y="-140" as="sourcePoint" />
            <mxPoint x="2569.52" y="-100" as="targetPoint" />
          </mxGeometry>
        </mxCell>
        <mxCell id="vSYfUBVNN7IIqY1nTDT4-201" value="False" style="edgeLabel;html=1;align=center;verticalAlign=middle;resizable=0;points=[];" parent="vSYfUBVNN7IIqY1nTDT4-200" vertex="1" connectable="0">
          <mxGeometry x="-0.4761" y="2" relative="1" as="geometry">
            <mxPoint as="offset" />
          </mxGeometry>
        </mxCell>
        <mxCell id="vSYfUBVNN7IIqY1nTDT4-202" value="Используется массив смещений для получения базового уровня громкости текущего столбца." style="rounded=0;whiteSpace=wrap;html=1;" parent="WIyWlLk6GJQsqaUBKTNV-1" vertex="1">
          <mxGeometry x="2670" y="-220" width="210" height="80" as="geometry" />
        </mxCell>
        <mxCell id="vSYfUBVNN7IIqY1nTDT4-203" value="Первый столбец матрицы" style="rhombus;whiteSpace=wrap;html=1;" parent="WIyWlLk6GJQsqaUBKTNV-1" vertex="1">
          <mxGeometry x="2930" y="-245" width="210" height="130" as="geometry" />
        </mxCell>
        <mxCell id="vSYfUBVNN7IIqY1nTDT4-205" value="" style="endArrow=classic;html=1;rounded=0;exitX=1;exitY=0.5;exitDx=0;exitDy=0;entryX=0;entryY=0.5;entryDx=0;entryDy=0;" parent="WIyWlLk6GJQsqaUBKTNV-1" source="vSYfUBVNN7IIqY1nTDT4-202" target="vSYfUBVNN7IIqY1nTDT4-203" edge="1">
          <mxGeometry width="50" height="50" relative="1" as="geometry">
            <mxPoint x="2579.52" y="-250" as="sourcePoint" />
            <mxPoint x="2579.52" y="-210" as="targetPoint" />
          </mxGeometry>
        </mxCell>
        <mxCell id="vSYfUBVNN7IIqY1nTDT4-208" value="" style="endArrow=classic;html=1;rounded=0;exitX=0.5;exitY=0;exitDx=0;exitDy=0;" parent="WIyWlLk6GJQsqaUBKTNV-1" source="vSYfUBVNN7IIqY1nTDT4-203" edge="1">
          <mxGeometry width="50" height="50" relative="1" as="geometry">
            <mxPoint x="2960" y="-250" as="sourcePoint" />
            <mxPoint x="2570" y="-245" as="targetPoint" />
          </mxGeometry>
        </mxCell>
        <mxCell id="vSYfUBVNN7IIqY1nTDT4-209" value="True" style="edgeLabel;html=1;align=center;verticalAlign=middle;resizable=0;points=[];" parent="vSYfUBVNN7IIqY1nTDT4-208" vertex="1" connectable="0">
          <mxGeometry x="-0.7749" y="1" relative="1" as="geometry">
            <mxPoint as="offset" />
          </mxGeometry>
        </mxCell>
        <mxCell id="vSYfUBVNN7IIqY1nTDT4-210" value="" style="endArrow=classic;html=1;rounded=0;entryX=0.5;entryY=0;entryDx=0;entryDy=0;" parent="WIyWlLk6GJQsqaUBKTNV-1" target="vSYfUBVNN7IIqY1nTDT4-212" edge="1">
          <mxGeometry width="50" height="50" relative="1" as="geometry">
            <mxPoint x="3034.44" y="-115" as="sourcePoint" />
            <mxPoint x="3034.44" y="-75" as="targetPoint" />
          </mxGeometry>
        </mxCell>
        <mxCell id="vSYfUBVNN7IIqY1nTDT4-211" value="False" style="edgeLabel;html=1;align=center;verticalAlign=middle;resizable=0;points=[];" parent="vSYfUBVNN7IIqY1nTDT4-210" vertex="1" connectable="0">
          <mxGeometry x="-0.4761" y="2" relative="1" as="geometry">
            <mxPoint as="offset" />
          </mxGeometry>
        </mxCell>
        <mxCell id="vSYfUBVNN7IIqY1nTDT4-212" value="Интерполяция от предыдущей позиции" style="rounded=0;whiteSpace=wrap;html=1;" parent="WIyWlLk6GJQsqaUBKTNV-1" vertex="1">
          <mxGeometry x="2975" y="-70" width="120" height="60" as="geometry" />
        </mxCell>
        <mxCell id="vSYfUBVNN7IIqY1nTDT4-213" value="Интерполяция следующей позиции" style="rounded=0;whiteSpace=wrap;html=1;" parent="WIyWlLk6GJQsqaUBKTNV-1" vertex="1">
          <mxGeometry x="2975" y="30" width="120" height="60" as="geometry" />
        </mxCell>
        <mxCell id="vSYfUBVNN7IIqY1nTDT4-214" value="" style="endArrow=classic;html=1;rounded=0;" parent="WIyWlLk6GJQsqaUBKTNV-1" edge="1">
          <mxGeometry width="50" height="50" relative="1" as="geometry">
            <mxPoint x="3034.57" y="-10" as="sourcePoint" />
            <mxPoint x="3034.57" y="30" as="targetPoint" />
          </mxGeometry>
        </mxCell>
        <mxCell id="vSYfUBVNN7IIqY1nTDT4-215" value="" style="endArrow=none;html=1;rounded=0;entryX=0.5;entryY=1;entryDx=0;entryDy=0;" parent="WIyWlLk6GJQsqaUBKTNV-1" target="vSYfUBVNN7IIqY1nTDT4-213" edge="1">
          <mxGeometry width="50" height="50" relative="1" as="geometry">
            <mxPoint x="3035" y="120" as="sourcePoint" />
            <mxPoint x="3010" y="-80" as="targetPoint" />
          </mxGeometry>
        </mxCell>
        <mxCell id="vSYfUBVNN7IIqY1nTDT4-216" value="" style="endArrow=none;html=1;rounded=0;" parent="WIyWlLk6GJQsqaUBKTNV-1" edge="1">
          <mxGeometry width="50" height="50" relative="1" as="geometry">
            <mxPoint x="3160" y="120" as="sourcePoint" />
            <mxPoint x="3035" y="120" as="targetPoint" />
          </mxGeometry>
        </mxCell>
        <mxCell id="vSYfUBVNN7IIqY1nTDT4-223" value="Вывод столбцов на матрицу" style="rounded=0;whiteSpace=wrap;html=1;" parent="WIyWlLk6GJQsqaUBKTNV-1" vertex="1">
          <mxGeometry x="2510" y="-100" width="120" height="60" as="geometry" />
        </mxCell>
        <mxCell id="vSYfUBVNN7IIqY1nTDT4-224" value="" style="endArrow=classic;html=1;rounded=0;entryX=0;entryY=0.5;entryDx=0;entryDy=0;" parent="WIyWlLk6GJQsqaUBKTNV-1" edge="1">
          <mxGeometry width="50" height="50" relative="1" as="geometry">
            <mxPoint x="3140" y="-180.30000000000004" as="sourcePoint" />
            <mxPoint x="3180" y="-180.30000000000004" as="targetPoint" />
          </mxGeometry>
        </mxCell>
        <mxCell id="vSYfUBVNN7IIqY1nTDT4-225" value="True" style="edgeLabel;html=1;align=center;verticalAlign=middle;resizable=0;points=[];" parent="vSYfUBVNN7IIqY1nTDT4-224" vertex="1" connectable="0">
          <mxGeometry x="-0.4033" relative="1" as="geometry">
            <mxPoint as="offset" />
          </mxGeometry>
        </mxCell>
        <mxCell id="vSYfUBVNN7IIqY1nTDT4-226" value="" style="endArrow=classic;html=1;rounded=0;" parent="WIyWlLk6GJQsqaUBKTNV-1" edge="1">
          <mxGeometry width="50" height="50" relative="1" as="geometry">
            <mxPoint x="3160" y="120" as="sourcePoint" />
            <mxPoint x="3160" y="-176" as="targetPoint" />
          </mxGeometry>
        </mxCell>
        <mxCell id="vSYfUBVNN7IIqY1nTDT4-227" value="Вычислить новый уровень с учетом сглаживания, сохранить это значение в массиве" style="rounded=0;whiteSpace=wrap;html=1;" parent="WIyWlLk6GJQsqaUBKTNV-1" vertex="1">
          <mxGeometry x="3180" y="-220" width="210" height="80" as="geometry" />
        </mxCell>
        <mxCell id="vSYfUBVNN7IIqY1nTDT4-228" value="Преобразовать уровень громкости в диапазон от 0 до 7. Отрисовать точку максимума" style="rounded=0;whiteSpace=wrap;html=1;" parent="WIyWlLk6GJQsqaUBKTNV-1" vertex="1">
          <mxGeometry x="3440" y="-220" width="210" height="80" as="geometry" />
        </mxCell>
        <mxCell id="vSYfUBVNN7IIqY1nTDT4-229" value="" style="endArrow=classic;html=1;rounded=0;exitX=1;exitY=0.5;exitDx=0;exitDy=0;entryX=0;entryY=0.5;entryDx=0;entryDy=0;" parent="WIyWlLk6GJQsqaUBKTNV-1" edge="1">
          <mxGeometry width="50" height="50" relative="1" as="geometry">
            <mxPoint x="3390" y="-180.48" as="sourcePoint" />
            <mxPoint x="3440" y="-180.48" as="targetPoint" />
          </mxGeometry>
        </mxCell>
        <mxCell id="vSYfUBVNN7IIqY1nTDT4-230" value="" style="endArrow=classic;html=1;rounded=0;" parent="WIyWlLk6GJQsqaUBKTNV-1" edge="1">
          <mxGeometry width="50" height="50" relative="1" as="geometry">
            <mxPoint x="3544.44" y="-140" as="sourcePoint" />
            <mxPoint x="3544.44" y="-100" as="targetPoint" />
          </mxGeometry>
        </mxCell>
        <mxCell id="vSYfUBVNN7IIqY1nTDT4-231" value="Прошло время затухания" style="rhombus;whiteSpace=wrap;html=1;" parent="WIyWlLk6GJQsqaUBKTNV-1" vertex="1">
          <mxGeometry x="3440" y="-100" width="210" height="130" as="geometry" />
        </mxCell>
        <mxCell id="vSYfUBVNN7IIqY1nTDT4-234" value="Спустить точку максимума на одну вниз" style="rounded=0;whiteSpace=wrap;html=1;" parent="WIyWlLk6GJQsqaUBKTNV-1" vertex="1">
          <mxGeometry x="3280" y="-65" width="120" height="60" as="geometry" />
        </mxCell>
        <mxCell id="vSYfUBVNN7IIqY1nTDT4-235" value="" style="endArrow=classic;html=1;rounded=0;exitX=0;exitY=0.5;exitDx=0;exitDy=0;entryX=1;entryY=0.5;entryDx=0;entryDy=0;" parent="WIyWlLk6GJQsqaUBKTNV-1" source="vSYfUBVNN7IIqY1nTDT4-231" target="vSYfUBVNN7IIqY1nTDT4-234" edge="1">
          <mxGeometry width="50" height="50" relative="1" as="geometry">
            <mxPoint x="3400" y="-170.48" as="sourcePoint" />
            <mxPoint x="3450" y="-170.48" as="targetPoint" />
          </mxGeometry>
        </mxCell>
        <mxCell id="vSYfUBVNN7IIqY1nTDT4-236" value="True" style="edgeLabel;html=1;align=center;verticalAlign=middle;resizable=0;points=[];" parent="vSYfUBVNN7IIqY1nTDT4-235" vertex="1" connectable="0">
          <mxGeometry x="-0.2318" y="2" relative="1" as="geometry">
            <mxPoint as="offset" />
          </mxGeometry>
        </mxCell>
        <mxCell id="vSYfUBVNN7IIqY1nTDT4-239" value="" style="endArrow=none;html=1;rounded=0;entryX=0.5;entryY=1;entryDx=0;entryDy=0;" parent="WIyWlLk6GJQsqaUBKTNV-1" target="vSYfUBVNN7IIqY1nTDT4-231" edge="1">
          <mxGeometry width="50" height="50" relative="1" as="geometry">
            <mxPoint x="3545" y="80" as="sourcePoint" />
            <mxPoint x="3450" y="10" as="targetPoint" />
          </mxGeometry>
        </mxCell>
        <mxCell id="vSYfUBVNN7IIqY1nTDT4-240" value="False" style="edgeLabel;html=1;align=center;verticalAlign=middle;resizable=0;points=[];" parent="vSYfUBVNN7IIqY1nTDT4-239" vertex="1" connectable="0">
          <mxGeometry x="0.1422" y="-1" relative="1" as="geometry">
            <mxPoint as="offset" />
          </mxGeometry>
        </mxCell>
        <mxCell id="vSYfUBVNN7IIqY1nTDT4-241" value="" style="endArrow=none;html=1;rounded=0;" parent="WIyWlLk6GJQsqaUBKTNV-1" edge="1">
          <mxGeometry width="50" height="50" relative="1" as="geometry">
            <mxPoint x="3545" y="80" as="sourcePoint" />
            <mxPoint x="3680" y="80" as="targetPoint" />
          </mxGeometry>
        </mxCell>
        <mxCell id="vSYfUBVNN7IIqY1nTDT4-242" value="" style="endArrow=none;html=1;rounded=0;" parent="WIyWlLk6GJQsqaUBKTNV-1" edge="1">
          <mxGeometry width="50" height="50" relative="1" as="geometry">
            <mxPoint x="3680" y="-280" as="sourcePoint" />
            <mxPoint x="3680" y="80" as="targetPoint" />
          </mxGeometry>
        </mxCell>
        <mxCell id="vSYfUBVNN7IIqY1nTDT4-243" value="" style="endArrow=none;html=1;rounded=0;" parent="WIyWlLk6GJQsqaUBKTNV-1" edge="1">
          <mxGeometry width="50" height="50" relative="1" as="geometry">
            <mxPoint x="2920" y="-280" as="sourcePoint" />
            <mxPoint x="3680" y="-280" as="targetPoint" />
          </mxGeometry>
        </mxCell>
        <mxCell id="vSYfUBVNN7IIqY1nTDT4-244" value="" style="endArrow=classic;html=1;rounded=0;" parent="WIyWlLk6GJQsqaUBKTNV-1" edge="1">
          <mxGeometry width="50" height="50" relative="1" as="geometry">
            <mxPoint x="2920" y="-280" as="sourcePoint" />
            <mxPoint x="2920" y="-244" as="targetPoint" />
          </mxGeometry>
        </mxCell>
        <mxCell id="vSYfUBVNN7IIqY1nTDT4-245" value="" style="endArrow=none;html=1;rounded=0;entryX=0.5;entryY=1;entryDx=0;entryDy=0;" parent="WIyWlLk6GJQsqaUBKTNV-1" target="vSYfUBVNN7IIqY1nTDT4-223" edge="1">
          <mxGeometry width="50" height="50" relative="1" as="geometry">
            <mxPoint x="2570" y="10" as="sourcePoint" />
            <mxPoint x="2210" y="-130" as="targetPoint" />
          </mxGeometry>
        </mxCell>
        <mxCell id="vSYfUBVNN7IIqY1nTDT4-246" value="" style="endArrow=none;html=1;rounded=0;" parent="WIyWlLk6GJQsqaUBKTNV-1" edge="1">
          <mxGeometry width="50" height="50" relative="1" as="geometry">
            <mxPoint x="2480" y="10" as="sourcePoint" />
            <mxPoint x="2570" y="10" as="targetPoint" />
          </mxGeometry>
        </mxCell>
        <mxCell id="vSYfUBVNN7IIqY1nTDT4-247" value="" style="endArrow=none;html=1;rounded=0;" parent="WIyWlLk6GJQsqaUBKTNV-1" edge="1">
          <mxGeometry width="50" height="50" relative="1" as="geometry">
            <mxPoint x="2480" y="-720" as="sourcePoint" />
            <mxPoint x="2480" y="10" as="targetPoint" />
          </mxGeometry>
        </mxCell>
        <mxCell id="vSYfUBVNN7IIqY1nTDT4-248" value="" style="endArrow=none;html=1;rounded=0;" parent="WIyWlLk6GJQsqaUBKTNV-1" edge="1">
          <mxGeometry width="50" height="50" relative="1" as="geometry">
            <mxPoint x="1241" y="-720" as="sourcePoint" />
            <mxPoint x="2481" y="-720" as="targetPoint" />
          </mxGeometry>
        </mxCell>
        <mxCell id="vSYfUBVNN7IIqY1nTDT4-249" value="" style="endArrow=none;html=1;rounded=0;" parent="WIyWlLk6GJQsqaUBKTNV-1" edge="1">
          <mxGeometry width="50" height="50" relative="1" as="geometry">
            <mxPoint x="1240" y="-80" as="sourcePoint" />
            <mxPoint x="1240" y="-720" as="targetPoint" />
          </mxGeometry>
        </mxCell>
        <mxCell id="vSYfUBVNN7IIqY1nTDT4-250" value="" style="endArrow=classic;html=1;rounded=0;entryX=1;entryY=0.5;entryDx=0;entryDy=0;" parent="WIyWlLk6GJQsqaUBKTNV-1" target="vSYfUBVNN7IIqY1nTDT4-64" edge="1">
          <mxGeometry width="50" height="50" relative="1" as="geometry">
            <mxPoint x="1240" y="-80" as="sourcePoint" />
            <mxPoint x="1280" y="-70" as="targetPoint" />
          </mxGeometry>
        </mxCell>
        <mxCell id="4fAS8JESM6ZCNkwX2xTo-4" value="Объявить переменную для хранения среднего значения сигнала, равную 0" style="rounded=0;whiteSpace=wrap;html=1;" parent="WIyWlLk6GJQsqaUBKTNV-1" vertex="1">
          <mxGeometry x="1320" y="-630" width="210" height="80" as="geometry" />
        </mxCell>
        <mxCell id="4fAS8JESM6ZCNkwX2xTo-5" value="" style="endArrow=classic;html=1;rounded=0;" parent="WIyWlLk6GJQsqaUBKTNV-1" edge="1">
          <mxGeometry width="50" height="50" relative="1" as="geometry">
            <mxPoint x="1424.5499999999997" y="-550" as="sourcePoint" />
            <mxPoint x="1424.5499999999997" y="-510" as="targetPoint" />
          </mxGeometry>
        </mxCell>
        <mxCell id="4fAS8JESM6ZCNkwX2xTo-6" value="Увеличение пременной среднего сигнала на велечину сигнала" style="rounded=0;whiteSpace=wrap;html=1;" parent="WIyWlLk6GJQsqaUBKTNV-1" vertex="1">
          <mxGeometry x="1365" y="-190" width="120" height="60" as="geometry" />
        </mxCell>
        <mxCell id="4fAS8JESM6ZCNkwX2xTo-7" value="" style="endArrow=classic;html=1;rounded=0;" parent="WIyWlLk6GJQsqaUBKTNV-1" edge="1">
          <mxGeometry width="50" height="50" relative="1" as="geometry">
            <mxPoint x="1424.3299999999997" y="-130" as="sourcePoint" />
            <mxPoint x="1424.3299999999997" y="-90" as="targetPoint" />
          </mxGeometry>
        </mxCell>
        <mxCell id="4fAS8JESM6ZCNkwX2xTo-8" value="Увеличение пременной среднего сигнала на велечину сигнала" style="rounded=0;whiteSpace=wrap;html=1;" parent="WIyWlLk6GJQsqaUBKTNV-1" vertex="1">
          <mxGeometry x="1935" y="-310" width="120" height="60" as="geometry" />
        </mxCell>
        <mxCell id="4fAS8JESM6ZCNkwX2xTo-9" value="Оба сигнала больше 0" style="rhombus;whiteSpace=wrap;html=1;" parent="WIyWlLk6GJQsqaUBKTNV-1" vertex="1">
          <mxGeometry x="1891.39" y="140" width="210" height="130" as="geometry" />
        </mxCell>
        <mxCell id="4fAS8JESM6ZCNkwX2xTo-10" value="" style="endArrow=classic;html=1;rounded=0;entryX=0.5;entryY=0;entryDx=0;entryDy=0;" parent="WIyWlLk6GJQsqaUBKTNV-1" edge="1">
          <mxGeometry width="50" height="50" relative="1" as="geometry">
            <mxPoint x="1996.01" y="90" as="sourcePoint" />
            <mxPoint x="1996.2" y="140" as="targetPoint" />
          </mxGeometry>
        </mxCell>
        <mxCell id="4fAS8JESM6ZCNkwX2xTo-11" value="False" style="edgeLabel;html=1;align=center;verticalAlign=middle;resizable=0;points=[];" parent="4fAS8JESM6ZCNkwX2xTo-10" vertex="1" connectable="0">
          <mxGeometry x="-0.1442" relative="1" as="geometry">
            <mxPoint as="offset" />
          </mxGeometry>
        </mxCell>
        <mxCell id="4fAS8JESM6ZCNkwX2xTo-12" value="" style="endArrow=classic;html=1;rounded=0;entryX=0;entryY=0.5;entryDx=0;entryDy=0;" parent="WIyWlLk6GJQsqaUBKTNV-1" edge="1">
          <mxGeometry width="50" height="50" relative="1" as="geometry">
            <mxPoint x="2101.39" y="204.64" as="sourcePoint" />
            <mxPoint x="2146.39" y="204.85999999999996" as="targetPoint" />
          </mxGeometry>
        </mxCell>
        <mxCell id="4fAS8JESM6ZCNkwX2xTo-13" value="True" style="edgeLabel;html=1;align=center;verticalAlign=middle;resizable=0;points=[];" parent="4fAS8JESM6ZCNkwX2xTo-12" vertex="1" connectable="0">
          <mxGeometry x="-0.4033" relative="1" as="geometry">
            <mxPoint as="offset" />
          </mxGeometry>
        </mxCell>
        <mxCell id="4fAS8JESM6ZCNkwX2xTo-14" value="" style="endArrow=classic;html=1;rounded=0;" parent="WIyWlLk6GJQsqaUBKTNV-1" edge="1">
          <mxGeometry width="50" height="50" relative="1" as="geometry">
            <mxPoint x="1994.6399999999996" y="-250" as="sourcePoint" />
            <mxPoint x="1994.6399999999996" y="-210" as="targetPoint" />
          </mxGeometry>
        </mxCell>
        <mxCell id="4fAS8JESM6ZCNkwX2xTo-15" value="" style="endArrow=none;html=1;rounded=0;" parent="WIyWlLk6GJQsqaUBKTNV-1" edge="1">
          <mxGeometry width="50" height="50" relative="1" as="geometry">
            <mxPoint x="1196" y="430" as="sourcePoint" />
            <mxPoint x="1996" y="430" as="targetPoint" />
          </mxGeometry>
        </mxCell>
        <mxCell id="4fAS8JESM6ZCNkwX2xTo-16" value="" style="endArrow=none;html=1;rounded=0;" parent="WIyWlLk6GJQsqaUBKTNV-1" edge="1">
          <mxGeometry width="50" height="50" relative="1" as="geometry">
            <mxPoint x="1196" y="430" as="sourcePoint" />
            <mxPoint x="1196" y="380" as="targetPoint" />
          </mxGeometry>
        </mxCell>
        <mxCell id="4fAS8JESM6ZCNkwX2xTo-17" value="" style="endArrow=classic;html=1;rounded=0;entryX=1;entryY=0.5;entryDx=0;entryDy=0;" parent="WIyWlLk6GJQsqaUBKTNV-1" target="vSYfUBVNN7IIqY1nTDT4-65" edge="1">
          <mxGeometry width="50" height="50" relative="1" as="geometry">
            <mxPoint x="1196" y="380" as="sourcePoint" />
            <mxPoint x="1240" y="330" as="targetPoint" />
          </mxGeometry>
        </mxCell>
      </root>
    </mxGraphModel>
  </diagram>
</mxfile>
